<svg id="Layer_1" data-name="Layer 1" xmlns="http://www.w3.org/2000/svg" viewBox="0 0 2831.02 1712.59"><defs><style>.cls-1{fill:#ff1654;}.cls-2{fill:#fff;}</style></defs><path class="cls-1" d="M2155.34-1487.13h-49.77c-.22.49-.43,1-.64,1.47h-17.21q-663.09-.52-1326.17-1v618H780q468.46-.12,936.93,0h545c3.67,0,7.34.13,11,0,22.88-1.07,40-14.49,44.81-35.76,1.24-5.42,1.15-11.23,1.15-16.86q.09-255.72.05-511.45c0-3.33.08-6.66-.09-10-.94-19.33-14.92-36.73-33.68-41.15-5.76-1.36-11.89-1.54-17.85-1.57-33.3-.14-66.61,0-99.92-.12-3.74,0-7.47-.63-11.68-1" transform="translate(49.26 2580.59)"/><path class="cls-1" d="M1134.28-1057.54c-.09,8.34-4.55,12.82-12.78,13.76a70.71,70.71,0,0,1-8,.16H919.68a70.71,70.71,0,0,1-8-.17c-8-.93-11.84-4.8-12.57-12.84-.29-3.31-.24-6.66-.24-10q0-124.86,0-249.71c0-20.4,2.08-22.48,22.18-22.51q33,0,65.94,0a51.35,51.35,0,0,1,9.93.69c6,1.21,9.1,4.83,9.68,11,.27,3,.12,6,.12,9v186.47h106.09c2.67,0,5.35-.12,8,.09,8.84.7,13.38,5.14,13.47,14.07Q1134.61-1087.51,1134.28-1057.54Z" transform="translate(49.26 2580.59)"/><path class="cls-1" d="M1499.7-1043.95a39.48,39.48,0,0,1-7,.32c-22,0-44,.09-65.93,0-15.07-.07-18.89-2.92-24.16-17.21-2.41-6.55-4.86-13.08-7.58-20.38h-89.23c-2.78,7.63-5.46,15.1-8.23,22.54-4.23,11.35-8.62,14.85-20.72,15-23.64.25-47.28-.12-70.92.18-10,.13-17.22-5.15-12.59-18.12,19.25-53.85,37.88-107.92,56.73-161.91q17-48.5,33.89-97c5.3-15.12,9.35-18.14,25.62-18.23q41-.23,81.9,0c16.18.09,20,3,25.42,18.42q44.52,127.08,89,254.19c1,2.82,2,5.65,2.71,8.55C1510.42-1050.28,1507.2-1045.31,1499.7-1043.95Z" transform="translate(49.26 2580.59)"/><path class="cls-1" d="M1854.78-1110.43c-7.46,31.74-28.73,49.9-58.83,59.17-17.64,5.43-35.88,7.33-54.17,7.48-46.94.37-93.88.2-140.81.13-13.76,0-17.72-4.11-17.72-18q0-129.78,0-259.56c0-13.64,3.58-17.59,17-17.54,52.25.2,104.51.35,156.75,1.19a122.13,122.13,0,0,1,50.19,11.66c24.8,11.66,39.45,31,42.83,58.28.93,7.55,1.63,15.29,1.07,22.84-1.26,16.89-10.08,30-22.76,40.66-2.28,1.92-4.72,3.65-7.18,5.54,7.14,6.5,14.38,11.89,20.15,18.55C1859-1159.56,1860.69-1135.6,1854.78-1110.43Z" transform="translate(49.26 2580.59)"/><path class="cls-1" d="M2169.51-1069.25c-18,13.38-38.39,21.4-60.19,25.36-35.43,6.43-70.84,6.17-105.84-3.34-21.3-5.79-40-16.11-55.47-32.1-12-12.41-19.08-27.16-20.7-44.35-1.12-11.9,2.62-16.07,14.35-16.13,24-.11,48,.07,71.94-.09a31.62,31.62,0,0,1,20.41,6.84c15.75,12.48,33.65,10.24,51.59,8.14a15.38,15.38,0,0,0,3.79-1.22c3.63-1.42,6.54-3.63,6.61-7.87a8.47,8.47,0,0,0-6-8.43,184.3,184.3,0,0,0-22.94-6.54c-18.57-3.66-37.38-6.19-55.86-10.26a115.63,115.63,0,0,1-46-21q-27.22-20.88-30.39-55.09c-3.78-40.87,14.07-70,49-89.56,18.55-10.4,38.83-15.24,60-17,26.84-2.29,53.18-.44,78.78,8.36,21.56,7.4,39.74,20,55,36.87,8.85,9.82,15.08,21,17.19,34.33,1.92,12.06-2,17-14,17.16-13,.15-26,0-39,0-11.65,0-23.31-.17-35,.06-8.67.17-16.45-1.81-23.12-7.55-9-7.72-19.66-7.35-30.35-5.92-5.61.75-9.22,4.59-9.45,8.86a9.19,9.19,0,0,0,7.15,9.71,354.28,354.28,0,0,0,35.86,8.08c19.06,3,38.14,5.78,56.47,12.07,6,2.05,11.85,4.41,17.57,7,28.13,12.95,42.12,35.52,44.55,65.88C2208.12-1114.29,2195.63-1088.64,2169.51-1069.25Z" transform="translate(49.26 2580.59)"/><path d="M753.78-1486.68c-249.15-.15-498.3.24-747.44-.34-34-.08-55.76,20.58-55.6,55.2.8,169.81.36,339.63.41,509.45,0,5.64-.07,11.42,1.09,16.89,4,19,15.7,31.22,34.62,35.88A70.89,70.89,0,0,0,3.66-868q378.93-.3,757.89-.7v-618ZM584.27-1086.81C575-1063,562-1041.65,541.41-1024.45c1.12-9.84,2.24-19.68,3.62-31.88-3.22,3.55-5,5.29-6.5,7.22-21.83,27.81-47.42,51.2-79.15,67.4-18.2,9.3-37.43,15.57-57.36,19.77a65.31,65.31,0,0,1-12.91.93c-14.65.11-29.33-.53-43.95.16-29.55,1.41-56.45-7.58-82.44-20.13-33.08-16-59.22-40.25-81.27-69.26-1.54-2-3.22-4-6.41-7.88,1.57,12.84,2.85,23.28,4.13,33.72l-1.91.9c-4.38-4.79-9-9.39-13.09-14.41-21.79-26.72-33.33-57.94-40.18-91.3-7-34-6.72-68-2.84-102.25a80.15,80.15,0,0,1,1.67-8.82c3.24-14,5.72-15.33,18.84-10a14.11,14.11,0,0,0,3,.52c5.92-13.1,11.29-26.3,17.71-39q42.64-84,133.1-111.08c18.37-5.48,36.79-8.78,56-7.75a209.53,209.53,0,0,0,23,0c30.24-1.73,57.94,7.53,84.38,20.54,47.33,23.3,82.16,59.32,104.49,107.16,4.48,9.59,8,19.65,12.32,30.61,3-1.17,5.12-2,7.25-2.83,7.92-3.08,11.25-2,13.14,6.35,2.63,11.64,5,23.5,5.75,35.38C604.39-1168,599.72-1126.59,584.27-1086.81Z" transform="translate(49.26 2580.59)"/><path class="cls-2" d="M601.72-1210.32c-.75-11.88-3.12-23.74-5.75-35.38-1.89-8.37-5.22-9.43-13.14-6.35-2.13.82-4.25,1.66-7.25,2.83-4.37-11-7.84-21-12.32-30.61-22.33-47.84-57.16-83.86-104.49-107.16-26.44-13-54.14-22.27-84.38-20.54a209.53,209.53,0,0,1-23,0c-19.2-1-37.62,2.27-56,7.75q-90.55,27-133.1,111.08c-6.42,12.66-11.79,25.86-17.71,39a14.11,14.11,0,0,1-3-.52c-13.12-5.35-15.6-4.06-18.84,10a80.15,80.15,0,0,0-1.67,8.82c-3.88,34.21-4.13,68.3,2.84,102.25,6.85,33.36,18.39,64.58,40.18,91.3,4.1,5,8.71,9.62,13.09,14.41l1.91-.9c-1.28-10.44-2.56-20.88-4.13-33.72,3.19,3.91,4.87,5.84,6.41,7.88,22.05,29,48.19,53.28,81.27,69.26,26,12.55,52.89,21.54,82.44,20.13,14.62-.69,29.3,0,43.95-.16a65.31,65.31,0,0,0,12.91-.93c19.93-4.2,39.16-10.47,57.36-19.77,31.73-16.2,57.32-39.59,79.15-67.4,1.52-1.93,3.28-3.67,6.5-7.22-1.38,12.2-2.5,22-3.62,31.88,20.58-17.2,33.62-38.57,42.86-62.36C599.72-1126.59,604.39-1168,601.72-1210.32Zm-43.43,74.66c-8.55,35.57-24.41,67.42-48.82,94.79-17.62,19.76-37.66,36.79-61.38,48.75-64.3,32.43-127.45,30.68-188.67-8.22-30.5-19.38-55.6-44.25-73.87-75.67-13.54-23.29-21.73-48.45-26.06-75-6.18-37.91-3.46-74.9,11.39-110.64q23.88-57.48,80.68-83.08c25.75-11.6,52.91-17.6,81.11-19,10.29-.5,20.57-1.3,30.85-2,35.69.24,70.28,5.75,103.14,20.13,50.31,22,81.11,59.84,91.77,113.84C564.75-1199.66,566-1167.64,558.29-1135.66Z" transform="translate(49.26 2580.59)"/><path d="M558.43-1231.67c-10.66-54-41.46-91.82-91.77-113.84-32.86-14.38-67.45-19.89-103.14-20.13-10.28.67-20.56,1.47-30.85,2-28.2,1.39-55.36,7.39-81.11,19q-56.68,25.54-80.68,83.08c-14.85,35.74-17.57,72.73-11.39,110.64,4.33,26.5,12.52,51.66,26.06,75,18.27,31.42,43.37,56.29,73.87,75.67,61.22,38.9,124.37,40.65,188.67,8.22,23.72-12,43.76-29,61.38-48.75,24.41-27.37,40.27-59.22,48.82-94.79C566-1167.64,564.75-1199.66,558.43-1231.67Zm-37.2,120.83c-5.19,9.52-12.83,17.7-19.47,26.41a3.51,3.51,0,0,1-.37.41c-.94,1-2.43,1.61-4.43,3,3.12-28,9.55-54.73,2.09-82.68-17.83,4.41-35.25,9-51.33,16.17-.92.41-1.84.83-2.75,1.26-4.09,1.93-8.1,4-12,6.37q-1.31.78-2.58,1.59c-.86.54-1.71,1.1-2.55,1.66s-1.68,1.14-2.51,1.73a109.37,109.37,0,0,0-14.31,12h0a96,96,0,0,0-24.41,40.67c-6.68,22.27-12.21,44.88-18.05,67.4-2.3,8.86-4.29,17.78-9.54,26.1-2-6.58-4.34-13.08-6-19.75-3.7-14.83-6.4-30-10.76-44.58a362.7,362.7,0,0,0-16.18-44.89,81.94,81.94,0,0,0-17.34-24.57c-2.37-2.36-4.88-4.61-7.49-6.76-.87-.72-1.75-1.42-2.64-2.12q-4-3.12-8.29-6c-17.85-12-50-23.86-69.2-25.38-8.55,27.34-.6,54.47,2.21,83.43-10.56-9.26-17.69-19-23.84-29.46-12.83-21.88-19.4-45.83-22.54-70.8-2.53-20.2-3.37-40.48-.48-60.7,1.17-8.14,3.38-16.13,5.05-23.85,8.31-2.63,14.26.63,19.89,4,13,7.73,26.22,15.23,39.22,23,4.33,2.59,8.65,5.22,12.92,7.9q4.28,2.67,8.5,5.43t8.38,5.6c14,9.62,27.5,20.07,40.85,30.68,8,6.36,16,12.78,24,19.11q1.93,1.53,3.8,3.21c1.23,1.11,2.44,2.26,3.61,3.45a95,95,0,0,1,6.61,7.46c3.9,4.89,6.72,10.64,10.74,17.18,7.9-15.81,19.21-27.82,31.73-38.42q4.43-3.74,9-7.28l2.3-1.77c1.53-1.18,3.07-2.34,4.62-3.5l4.65-3.46,2.32-1.73c3.1-2.3,6.2-4.6,9.26-6.93l2.29-1.76a567.66,567.66,0,0,1,58.55-39.13q6.06-3.59,12.19-7.07,12.25-7,24.67-13.68c.22-.12.44-.24.65-.37a22.21,22.21,0,0,1,2-1.08l1.32-.59c.43-.18.85-.36,1.26-.51.6-.24,1.19-.45,1.75-.63s1.1-.34,1.61-.46c3-.71,5.21-.41,6.89,1.06a5.39,5.39,0,0,1,.54.53,9.29,9.29,0,0,1,.73,1,7.6,7.6,0,0,1,.44.74,24.58,24.58,0,0,1,2.2,7.09C550.32-1204.87,546-1156.3,521.23-1110.84Z" transform="translate(49.26 2580.59)"/><path class="cls-2" d="M360.05-1137.1c14.87-29.76,41.83-46.05,66.18-64.85,29.83-23,62.32-42,95.41-59.88.88-.48,1.71-1,2.62-1.45,10.56-4.86,14.63-3.17,16.74,8.18,9.31,50.23,5,98.79-19.77,144.26-5.19,9.51-12.83,17.7-19.47,26.4-.9,1.19-2.51,1.83-4.8,3.43,3.12-28,9.55-54.74,2.09-82.68-32.61,8.06-63.84,16.67-88,40.82a96.11,96.11,0,0,0-24.42,40.68c-6.67,22.26-12.2,44.88-18,67.39-2.3,8.87-4.29,17.8-9.54,26.11-2-6.58-4.34-13.09-6-19.76-3.7-14.83-6.4-29.94-10.76-44.57a362.12,362.12,0,0,0-16.18-44.89c-7.52-16.75-20.59-29.25-35.76-39.44-17.85-12-50-23.86-69.2-25.38-8.55,27.34-.6,54.47,2.21,83.43-10.56-9.26-17.69-19-23.84-29.47-12.83-21.88-19.41-45.82-22.54-70.8-2.53-20.2-3.37-40.47-.48-60.69,1.17-8.14,3.38-16.14,5.05-23.85,8.31-2.63,14.26.62,19.89,4,23.15,13.75,46.84,26.75,69,42,22.45,15.39,43.45,32.91,64.85,49.79a87.91,87.91,0,0,1,14,14.12C353.21-1149.39,356-1143.65,360.05-1137.1Z" transform="translate(49.26 2580.59)"/><path d="M1918.23-1084.93h.5m-92.34-230.38,1.18.39-1.17-.41Z" transform="translate(49.26 2580.59)"/><path class="cls-2" d="M1840.8-1180.37c-5.77-6.66-13-12.05-20.15-18.55,2.46-1.89,4.9-3.62,7.18-5.54,12.68-10.7,21.5-23.77,22.76-40.66.56-7.55-.14-15.29-1.07-22.84-3.38-27.33-18-46.62-42.83-58.28a122.13,122.13,0,0,0-50.19-11.66c-52.24-.84-104.5-1-156.75-1.19-13.42-.05-17,3.9-17,17.54q-.06,129.78,0,259.56c0,13.88,4,18,17.72,18,46.93.07,93.87.24,140.81-.13,18.29-.15,36.53-2,54.17-7.48,30.1-9.27,51.37-27.43,58.83-59.17C1860.19-1135.95,1858.53-1159.91,1840.8-1180.37ZM1689.71-1265c7.34-.13,14.48-.27,21.62-.37,3.31-.05,6.64.18,9.94,0,7.49-.5,12.83,2.62,16.08,9.26,3.48,7.08,3.21,14-1,20.79a13.92,13.92,0,0,1-11.77,6.45c-11.19.4-22.41.13-34.83.13Zm38.68,146.79c-12.53.32-25.07.07-38.35.07v-39.15c13.57,0,26.14-.37,38.67.12,10.28.39,16.92,8.74,16.67,19.66C1745.13-1126.12,1738.7-1118.49,1728.39-1118.21Z" transform="translate(49.26 2580.59)"/><path class="cls-2" d="M2141.29-1245.54c-11.66,0-23.32-.17-35,.06-8.67.18-16.45-1.8-23.13-7.54-9-7.72-19.65-7.35-30.34-5.93-5.62.75-9.22,4.6-9.45,8.86a9.2,9.2,0,0,0,7.15,9.72,359.79,359.79,0,0,0,35.86,8.08c19.06,3,38.14,5.78,56.46,12.07a185.1,185.1,0,0,1,17.58,7c28.13,12.94,42.12,35.52,44.55,65.87,2.62,32.68-9.87,58.32-36,77.72-18,13.37-38.39,21.4-60.19,25.35-35.43,6.43-70.84,6.17-105.84-3.34-21.3-5.78-40-16.11-55.47-32.1-12-12.41-19.08-27.15-20.7-44.35-1.12-11.9,2.61-16.07,14.35-16.12,24-.12,48,.07,71.94-.1a31.63,31.63,0,0,1,20.41,6.85c15.74,12.48,33.65,10.24,51.59,8.14a16.58,16.58,0,0,0,3.79-1.22c3.63-1.42,6.54-3.63,6.6-7.88a8.46,8.46,0,0,0-6-8.43,183.62,183.62,0,0,0-22.93-6.53c-18.57-3.66-37.38-6.19-55.86-10.26a115.78,115.78,0,0,1-46-21q-27.22-20.87-30.39-55.09c-3.78-40.87,14.07-70,49-89.55,18.56-10.4,38.83-15.24,60-17,26.84-2.28,53.19-.44,78.79,8.36,21.55,7.41,39.74,20,54.94,36.88,8.85,9.81,15.09,21,17.2,34.32,1.91,12.07-2,17-14,17.17C2167.27-1245.43,2154.28-1245.54,2141.29-1245.54Z" transform="translate(49.26 2580.59)"/><path class="cls-2" d="M1508.12-1058c-.72-2.9-1.72-5.73-2.71-8.55q-44.48-127.11-89-254.19c-5.41-15.44-9.24-18.33-25.42-18.42q-41-.22-81.9,0c-16.27.09-20.32,3.11-25.62,18.23q-17,48.48-33.89,97c-18.85,54-37.48,108.06-56.73,161.91-4.63,13,2.55,18.25,12.59,18.12,23.64-.3,47.28.07,70.92-.18,12.1-.13,16.49-3.63,20.72-15,2.77-7.44,5.45-14.91,8.23-22.54h89.23c2.72,7.3,5.17,13.83,7.58,20.38,5.27,14.29,9.09,17.14,24.16,17.21,22,.1,44,0,65.93,0a39.48,39.48,0,0,0,7-.32C1506.7-1045.66,1509.92-1050.63,1508.12-1058Zm-180.35-108.4c7.14-23.85,14.1-47.08,21-70.31l1.89-.06c7.08,23.18,14.16,46.36,21.5,70.37Z" transform="translate(49.26 2580.59)"/><path class="cls-2" d="M1006.24-1132h106.09c2.67,0,5.34-.12,8,.09,8.83.7,13.37,5.13,13.47,14.06q.32,30,0,59.93c-.09,8.34-4.56,12.82-12.78,13.77a70.84,70.84,0,0,1-8,.16H919.18a68.66,68.66,0,0,1-8-.18c-8-.92-11.83-4.8-12.56-12.84-.3-3.31-.24-6.65-.24-10q0-124.85,0-249.7c0-20.4,2.08-22.48,22.17-22.51q33,0,66,0a52.21,52.21,0,0,1,9.93.69c6,1.21,9.1,4.83,9.67,11,.28,3,.12,6,.12,9q0,86.39,0,172.79Z" transform="translate(49.26 2580.59)"/><path class="cls-2" d="M601.22-1210.68c-.75-11.88-3.12-23.74-5.75-35.38-1.89-8.37-5.22-9.43-13.14-6.35-2.13.82-4.25,1.66-7.25,2.83-4.37-11-7.84-21-12.32-30.61C540.43-1328,505.6-1364,458.27-1387.35c-26.44-13-54.14-22.27-84.38-20.54a209.53,209.53,0,0,1-23,0c-19.2-1-37.62,2.27-56,7.75q-90.55,27-133.1,111.08c-6.42,12.66-11.79,25.86-17.71,39a14.11,14.11,0,0,1-3-.52c-13.12-5.35-15.6-4.06-18.84,10a80.15,80.15,0,0,0-1.67,8.82c-3.88,34.21-4.13,68.3,2.84,102.25,6.85,33.36,18.39,64.58,40.18,91.3,4.1,5,8.71,9.62,13.09,14.41l1.91-.9c-1.28-10.44-2.56-20.88-4.13-33.72,3.19,3.91,4.87,5.84,6.41,7.88,22.05,29,48.19,53.28,81.27,69.26,26,12.55,52.89,21.54,82.44,20.13,14.62-.69,29.3,0,43.95-.16a65.31,65.31,0,0,0,12.91-.93c19.93-4.2,39.16-10.47,57.36-19.77,31.73-16.2,57.32-39.59,79.15-67.4,1.52-1.93,3.28-3.67,6.5-7.22-1.38,12.2-2.5,22-3.62,31.88,20.58-17.2,33.62-38.57,42.86-62.36C599.22-1126.95,603.89-1168.38,601.22-1210.68ZM557.79-1136c-8.55,35.57-24.41,67.42-48.82,94.79-17.62,19.76-37.66,36.79-61.38,48.75-64.3,32.43-127.45,30.68-188.67-8.22-30.5-19.38-55.6-44.25-73.87-75.67-13.54-23.29-21.73-48.45-26.06-75-6.18-37.91-3.46-74.9,11.39-110.64q23.88-57.48,80.68-83.08c25.75-11.6,52.91-17.6,81.11-19,10.29-.5,20.57-1.3,30.85-2,35.69.24,70.28,5.75,103.14,20.13,50.31,22,81.11,59.84,91.77,113.84C564.25-1200,565.47-1168,557.79-1136Z" transform="translate(49.26 2580.59)"/><path class="cls-2" d="M1962-2035.4c.74,45-34.19,91.4-91,91.76-56.08.36-91.84-44.78-92.18-90.76-.36-47.77,36.67-92.28,91.67-92.3C1926.39-2126.71,1962.46-2081,1962-2035.4Z" transform="translate(49.26 2580.59)"/><path class="cls-2" d="M2442.86-1890.79c10.89,4,20.86,7.54,30.78,11.23,18.46,6.86,23.69,18,17.19,36.8-2.62,7.54-5.24,15.09-8.13,22.53-5.71,14.75-17.8,20.41-32.9,15.33-11-3.68-21.8-7.7-33.54-11.86l-9.35,25.8c-2.16,5.94-4.07,12-6.5,17.81-5.49,13.12-17.31,18.68-30.88,14.34-9.17-2.93-18.24-6.25-27.21-9.75-14.82-5.77-20.23-17.65-15-32.92,3.74-11,7.83-21.92,11.7-32.9,1-2.76,1.7-5.61,2.76-9.15-11.35-4.11-22.22-8-33.08-12-2.81-1-5.66-2-8.37-3.19-11.66-5.32-17.39-16.44-13.76-28.73a265.25,265.25,0,0,1,11.58-31.86c5.12-11.66,16.8-16.58,29.08-12.64,13.57,4.35,26.93,9.36,41.39,14.44,2.75-7.36,5.4-14.41,8-21.47,1.39-3.75,2.53-7.59,4.14-11.24,5.47-12.4,17.4-17.85,30.43-13.66,9.17,2.95,18.25,6.22,27.23,9.73,14.91,5.82,20.29,17.5,15.21,32.9C2450.39-1911.47,2446.78-1901.83,2442.86-1890.79Z" transform="translate(49.26 2580.59)"/><path d="M557.93-1232c-10.66-54-41.46-91.82-91.77-113.84C433.3-1360.25,398.71-1365.76,363-1366c-10.28.67-20.56,1.47-30.85,2-28.2,1.39-55.36,7.39-81.11,19q-56.68,25.55-80.68,83.08c-14.85,35.74-17.57,72.73-11.39,110.64,4.33,26.5,12.52,51.66,26.06,75,18.27,31.42,43.37,56.29,73.87,75.67,61.22,38.9,124.37,40.65,188.67,8.22,23.72-12,43.76-29,61.38-48.75,24.41-27.37,40.27-59.22,48.82-94.79C565.47-1168,564.25-1200,557.93-1232Zm-37.2,120.83c-5.19,9.51-12.83,17.7-19.47,26.4-.9,1.19-2.51,1.83-4.8,3.43,3.12-28,9.55-54.74,2.09-82.68-32.61,8.07-63.84,16.67-88,40.82a96.09,96.09,0,0,0-24.41,40.68c-6.68,22.27-12.21,44.88-18.05,67.39-2.3,8.87-4.29,17.8-9.54,26.11-2-6.58-4.34-13.09-6-19.76-3.7-14.83-6.4-29.94-10.76-44.57a362.12,362.12,0,0,0-16.18-44.89c-7.52-16.75-20.59-29.24-35.76-39.44-17.85-12-50-23.86-69.2-25.38-8.55,27.34-.6,54.47,2.21,83.43-10.56-9.26-17.69-19-23.84-29.47-12.83-21.88-19.4-45.82-22.54-70.8-2.53-20.2-3.37-40.47-.48-60.69,1.17-8.14,3.38-16.14,5.05-23.85,8.31-2.63,14.26.62,19.89,4,23.15,13.75,46.85,26.75,69,42,22.45,15.39,43.45,32.91,64.85,49.79a87.91,87.91,0,0,1,14,14.12c3.9,4.89,6.72,10.64,10.74,17.18,14.87-29.76,41.83-46,66.18-64.85,29.83-23,62.32-42,95.41-59.88.88-.48,1.71-1,2.62-1.45,10.56-4.86,14.63-3.17,16.74,8.18C549.82-1205.23,545.5-1156.67,520.73-1111.2Z" transform="translate(49.26 2580.59)"/><path class="cls-2" d="M359.54-1137.46c14.88-29.76,41.84-46,66.19-64.84,29.83-23,62.32-42,95.41-59.89.88-.47,1.71-1,2.61-1.45,10.57-4.85,14.64-3.16,16.75,8.19,9.31,50.23,5,98.79-19.77,144.25-5.19,9.52-12.84,17.7-19.47,26.41-.9,1.18-2.51,1.83-4.8,3.43,3.12-28,9.54-54.74,2.09-82.69-32.61,8.07-63.84,16.67-88,40.83a95.92,95.92,0,0,0-24.42,40.67c-6.67,22.27-12.2,44.88-18,67.4-2.3,8.86-4.29,17.8-9.55,26.11-2-6.58-4.33-13.09-6-19.76-3.7-14.83-6.4-30-10.76-44.57a363.89,363.89,0,0,0-16.18-44.9c-7.52-16.74-20.59-29.24-35.77-39.44-17.84-12-50-23.86-69.19-25.38-8.55,27.34-.6,54.47,2.21,83.43A114.7,114.7,0,0,1,199-1109.12c-12.84-21.88-19.41-45.82-22.54-70.8-2.54-20.2-3.37-40.48-.48-60.7,1.17-8.14,3.38-16.13,5-23.85,8.32-2.63,14.27.63,19.9,4,23.15,13.76,46.84,26.76,69,42,22.45,15.39,43.45,32.92,64.85,49.8a87,87,0,0,1,14,14.11C352.7-1149.75,355.53-1144,359.54-1137.46Z" transform="translate(49.26 2580.59)"/><path d="M2170.26-1570.89c-3.05-29.28-17.58-50.41-45-62a98.58,98.58,0,0,0-35.89-7.82c-13.3-.35-26.63.19-39.95.33s-26.7.16-39.4-4.76c-11.19-4.33-15.79-11.39-14.76-23.21,1.52-17.56,8.51-33.25,17.07-49.27l1.6.54-45.72-16.23c-1.67,3.82-2.9,6.74-4.21,9.62-7.21,15.85-12.49,32.23-14.41,49.63-3.51,31.88,12.24,58.8,41.85,71a96.27,96.27,0,0,0,12.3,4.07c16.58,4.31,33.46,5.29,50.52,4.55,15-.64,29.94-2.08,44.78,1.3,18,4.11,25.33,13.13,25.64,31.47.46,26.61-9.53,50.24-20.09,74.56h50.27c2.59-7.54,4.83-13.68,6.79-19.91C2168.2-1527.82,2172.54-1548.95,2170.26-1570.89Z" transform="translate(49.26 2580.59)"/><path class="cls-1" d="M2780.5-2193.65c-3.38-16.88-12.87-25.57-29.83-24.18-10.11.83-20.3,3.6-29.94,7a2778.47,2778.47,0,0,1-312.48,89.2,32.83,32.83,0,0,1-19.38-1.28q-62.79-22.91-125.69-45.44-140.43-50.41-280.91-100.63a30,30,0,0,1-14.14-10.28c-38.21-48.77-74.82-98.7-109-150.33-26.65-40.22-51.93-81.35-78.17-121.84a114.64,114.64,0,0,0-18.27-22.22c-9.44-8.66-20.84-9.09-31.19-1.85a76.28,76.28,0,0,0-15.79,15c-16.31,20.6-26.41,44.57-35.77,68.82-21.5,55.69-36.59,113.29-49.51,171.43-10,45.11-19.36,90.42-27.47,135.91-7.48,41.9-12.37,84.25-19.43,126.23-5.57,33.09.48,63.4,17.29,92.08,14.48,24.73,33.65,45.43,54.91,64.29,37.07,32.88,78.78,59,122.17,82.61,58.28,31.69,119.05,57.85,181,81.42,3.32,1.27,6.63,2.56,10.47,4-.07.16-.14.31-.2.46l44.11,15.67.07-.13c4.42,1.5,7.57,2.52,10.68,3.64,79.54,28.73,160,54.09,243.34,69.67,54.44,10.18,109.2,16.67,164.76,11.2,22.31-2.19,44.1-6.57,64.88-15.06,25.57-10.44,47.32-26,61.68-50.11,29.25-49.21,59-98.13,87-148,39.63-70.54,76-142.76,105.83-218.1,12-30.34,22.8-61.11,28-93.49C2781.48-2169.75,2782.9-2181.61,2780.5-2193.65Zm-909.08,250.36c-56.08.36-91.84-44.78-92.18-90.76-.36-47.77,36.68-92.28,91.68-92.3,56,0,92,45.7,91.55,91.3C1963.21-1990.06,1928.28-1943.66,1871.42-1943.29Zm619.91,100.88c-2.61,7.54-5.24,15.08-8.12,22.52-5.72,14.75-17.8,20.41-32.91,15.34-11-3.69-21.79-7.7-33.53-11.87-3.29,9.07-6.33,17.44-9.36,25.81-2.15,5.94-4.07,12-6.5,17.81-5.48,13.12-17.31,18.67-30.88,14.34-9.17-2.94-18.24-6.25-27.21-9.75-14.81-5.77-20.22-17.65-15-32.92,3.74-11,7.83-21.92,11.7-32.9,1-2.76,1.71-5.61,2.77-9.16-11.35-4.11-22.22-8-33.08-12-2.81-1-5.67-2-8.38-3.2-11.65-5.32-17.38-16.43-13.76-28.73a266.84,266.84,0,0,1,11.58-31.85c5.12-11.66,16.8-16.58,29.08-12.65,13.57,4.36,26.93,9.37,41.4,14.44,2.74-7.35,5.39-14.41,8-21.47,1.39-3.74,2.53-7.59,4.14-11.23,5.48-12.4,17.41-17.85,30.43-13.66,9.17,3,18.26,6.22,27.23,9.72,14.91,5.82,20.3,17.51,15.22,32.9-3.23,9.77-6.84,19.4-10.76,30.45,10.89,4,20.86,7.54,30.79,11.23C2492.61-1872.35,2497.84-1861.16,2491.33-1842.41Z" transform="translate(49.26 2580.59)"/><path class="cls-1" d="M1690-1157.28c13.56,0,26.13-.37,38.67.11,10.27.4,16.92,8.75,16.67,19.66-.26,11.39-6.68,19-17,19.3-12.52.33-25.06.08-38.34.08Z" transform="translate(49.26 2580.59)"/><path class="cls-1" d="M1689.7-1228.78V-1265c7.35-.13,14.49-.27,21.63-.37,3.31,0,6.64.19,9.94,0,7.49-.51,12.82,2.62,16.08,9.26,3.48,7.08,3.21,14-1,20.79a13.91,13.91,0,0,1-11.77,6.44C1713.35-1228.51,1702.13-1228.78,1689.7-1228.78Z" transform="translate(49.26 2580.59)"/><path class="cls-1" d="M1372.21-1166.37h-44.44l21-70.3,1.88-.07C1357.79-1213.56,1364.87-1190.38,1372.21-1166.37Z" transform="translate(49.26 2580.59)"/></svg>